<svg width="76" height="68" viewBox="0 0 76 68" fill="none" xmlns="http://www.w3.org/2000/svg">
<path d="M2.81818 63V39.7273H10.9545C12.5758 39.7273 13.9129 40.0076 14.9659 40.5682C16.0189 41.1212 16.803 41.8674 17.3182 42.8068C17.8333 43.7386 18.0909 44.7727 18.0909 45.9091C18.0909 46.9091 17.9129 47.7348 17.5568 48.3864C17.2083 49.0379 16.7462 49.553 16.1705 49.9318C15.6023 50.3106 14.9848 50.5909 14.3182 50.7727V51C15.0303 51.0455 15.7462 51.2955 16.4659 51.75C17.1856 52.2045 17.7879 52.8561 18.2727 53.7045C18.7576 54.553 19 55.5909 19 56.8182C19 57.9848 18.7348 59.0341 18.2045 59.9659C17.6742 60.8977 16.8371 61.6364 15.6932 62.1818C14.5492 62.7273 13.0606 63 11.2273 63H2.81818ZM5.63636 60.5H11.2273C13.0682 60.5 14.375 60.1439 15.1477 59.4318C15.928 58.7121 16.3182 57.8409 16.3182 56.8182C16.3182 56.0303 16.1174 55.303 15.7159 54.6364C15.3144 53.9621 14.7424 53.4242 14 53.0227C13.2576 52.6136 12.3788 52.4091 11.3636 52.4091H5.63636V60.5ZM5.63636 49.9545H10.8636C11.7121 49.9545 12.4773 49.7879 13.1591 49.4545C13.8485 49.1212 14.3939 48.6515 14.7955 48.0455C15.2045 47.4394 15.4091 46.7273 15.4091 45.9091C15.4091 44.8864 15.053 44.0189 14.3409 43.3068C13.6288 42.5871 12.5 42.2273 10.9545 42.2273H5.63636V49.9545ZM23.267 63V45.5455H25.858V48.1818H26.0398C26.358 47.3182 26.9337 46.6174 27.767 46.0795C28.6004 45.5417 29.5398 45.2727 30.5852 45.2727C30.7822 45.2727 31.0284 45.2765 31.3239 45.2841C31.6193 45.2917 31.8428 45.303 31.9943 45.3182V48.0455C31.9034 48.0227 31.6951 47.9886 31.3693 47.9432C31.0511 47.8902 30.714 47.8636 30.358 47.8636C29.5095 47.8636 28.7519 48.0417 28.0852 48.3977C27.4261 48.7462 26.9034 49.2311 26.517 49.8523C26.1383 50.4659 25.9489 51.1667 25.9489 51.9545V63H23.267ZM37.8551 52.5V63H35.1733V45.5455H37.7642V48.2727H37.9915C38.4006 47.3864 39.0218 46.6742 39.8551 46.1364C40.6884 45.5909 41.7642 45.3182 43.0824 45.3182C44.2642 45.3182 45.2983 45.5606 46.1847 46.0455C47.071 46.5227 47.7604 47.25 48.2528 48.2273C48.7453 49.197 48.9915 50.4242 48.9915 51.9091V63H46.3097V52.0909C46.3097 50.7197 45.9536 49.6515 45.2415 48.8864C44.5294 48.1136 43.5521 47.7273 42.3097 47.7273C41.4536 47.7273 40.6884 47.9129 40.0142 48.2841C39.3475 48.6553 38.821 49.197 38.4347 49.9091C38.0483 50.6212 37.8551 51.4848 37.8551 52.5ZM60.983 63.3636C59.4072 63.3636 58.0246 62.9886 56.8352 62.2386C55.6534 61.4886 54.7292 60.4394 54.0625 59.0909C53.4034 57.7424 53.0739 56.1667 53.0739 54.3636C53.0739 52.5455 53.4034 50.9583 54.0625 49.6023C54.7292 48.2462 55.6534 47.1932 56.8352 46.4432C58.0246 45.6932 59.4072 45.3182 60.983 45.3182C62.5587 45.3182 63.9375 45.6932 65.1193 46.4432C66.3087 47.1932 67.233 48.2462 67.892 49.6023C68.5587 50.9583 68.892 52.5455 68.892 54.3636C68.892 56.1667 68.5587 57.7424 67.892 59.0909C67.233 60.4394 66.3087 61.4886 65.1193 62.2386C63.9375 62.9886 62.5587 63.3636 60.983 63.3636ZM60.983 60.9545C62.1799 60.9545 63.1648 60.6477 63.9375 60.0341C64.7102 59.4205 65.2822 58.6136 65.6534 57.6136C66.0246 56.6136 66.2102 55.5303 66.2102 54.3636C66.2102 53.197 66.0246 52.1098 65.6534 51.1023C65.2822 50.0947 64.7102 49.2803 63.9375 48.6591C63.1648 48.0379 62.1799 47.7273 60.983 47.7273C59.786 47.7273 58.8011 48.0379 58.0284 48.6591C57.2557 49.2803 56.6837 50.0947 56.3125 51.1023C55.9413 52.1098 55.7557 53.197 55.7557 54.3636C55.7557 55.5303 55.9413 56.6136 56.3125 57.6136C56.6837 58.6136 57.2557 59.4205 58.0284 60.0341C58.8011 60.6477 59.786 60.9545 60.983 60.9545Z" fill="black"/>
<path d="M15.3409 8.81818V35H12.1705V8.81818H15.3409Z" fill="black"/>
<path d="M58.4238 15.9449C58.4238 11.0047 54.4191 7 49.4798 7C46.4813 7 43.8353 8.48024 42.2119 10.7427C40.5884 8.48024 37.9425 7 34.9449 7C30.0047 7 26 11.0038 26 15.9449C26 16.6446 26.0888 17.3227 26.2411 17.9762C27.483 25.6928 36.0625 33.8337 42.2119 36.069C48.3604 33.8337 56.9408 25.6928 58.1808 17.9771C58.3349 17.3236 58.4238 16.6456 58.4238 15.9449Z" fill="#DD2E44"/>
</svg>
